<svg width="90" height="34" viewBox="0 0 90 34" fill="none" xmlns="http://www.w3.org/2000/svg">
<g id="Main logo">
<path id="Vector" d="M45.195 12.9524C42.779 7.95832 37.9792 12.5707 37.1739 13.0796L37.7215 10.2168L33.3405 12.9524C33.5983 13.5249 33.5983 16.2605 33.5338 19.2824L33.4372 19.3778C31.5366 21.3182 31.1501 20.3639 31.0212 20.1094C30.8924 19.855 31.0212 15.5289 30.9568 12.4116C30.8924 9.29431 27.51 10.2168 27.1878 10.2804C26.8657 10.344 25.4161 10.9166 23.1934 11.9345C20.9707 12.9524 22.1626 14.8291 22.1626 14.8291C22.1626 14.8291 24.5786 13.684 25.3195 13.3659C25.2967 13.2125 25.2533 13.0627 25.1906 12.9206C24.8685 11.9345 27.51 11.3301 27.6388 12.348C27.7033 13.016 27.7033 14.9564 27.7033 14.9564C27.7033 14.9564 26.7047 14.2884 26.0926 14.2884C24.0632 14.2884 21.8083 16.4196 21.2606 17.2784C20.749 18.0013 20.5201 18.8828 20.6164 19.7595C20.2298 19.9822 19.65 20.3321 19.2312 20.523C17.9749 21.1592 18.2326 19.1552 18.2326 18.8689C18.136 17.5011 17.9749 5.31816 17.9749 5.31816C17.9749 5.31816 17.2984 5.92253 15.0435 7.70385V9.38974C15.0435 9.38974 15.0757 18.7098 15.0757 20.5866C15.0757 22.7178 16.0099 23.1631 17.0407 23.0677C17.2984 23.0359 19.9721 21.0955 20.7774 20.523C21.2929 22.0498 22.7747 23.0677 23.4833 23.0359C25.2228 22.9405 27.6066 20.4594 27.6066 20.4594C27.9932 21.0001 28.1542 22.0816 29.3461 22.845C30.1837 23.3858 32.5352 21.5727 33.4694 20.8093C33.3405 24.6264 33.1473 28.4117 33.1473 28.4117C33.3405 28.0936 36.3686 26.026 36.3686 26.026V22.0498C36.3686 22.0498 38.1081 23.1949 39.0745 23.1949C44.1964 23.3222 46.7412 16.1333 45.195 12.9524ZM25.4161 20.4594C23.8699 20.2685 23.6122 17.5329 23.8699 16.8013C24.0954 16.1651 25.7705 14.2566 27.7033 16.5468C28.2509 17.2466 26.4147 20.5866 25.4161 20.4594ZM38.9778 21.3182C34.5646 19.4733 37.6893 14.9245 38.4946 14.2566C39.1389 13.7158 39.6543 13.3023 40.8462 13.3341C44.8406 13.5249 43.4555 23.1949 38.9778 21.3182ZM58.3057 12.9524C55.8897 7.95832 51.09 12.5707 50.2846 13.0796L50.8323 10.2168L46.4513 12.9524C47.0633 14.352 46.258 28.3798 46.258 28.3798C46.4513 28.0618 49.4793 25.9942 49.4793 25.9942V22.0498C49.4793 22.0498 51.2188 23.1949 52.1852 23.1949C57.3071 23.3222 59.8519 16.1333 58.3057 12.9524ZM52.0564 21.3182C47.6432 19.4733 50.7678 14.9245 51.5732 14.2566C52.2174 13.7158 52.7328 13.3023 53.9247 13.3341C57.9191 13.5249 56.5662 23.1949 52.0564 21.3182ZM89.7135 9.6124C89.1658 6.59053 88.135 3.21875 85.3325 1.50105C83.3353 0.2923 80.7904 0.355919 78.5999 0.769439C74.8632 1.46924 71.2231 3.37779 68.0985 5.4772C68.0663 5.50901 68.0018 5.54082 67.9696 5.57263C67.2588 6.06761 66.6099 6.64422 66.0368 7.29033C65.6181 7.76747 65.7469 7.89471 66.2623 7.5448C71.2876 4.04579 80.9515 -0.248457 85.1392 6.4951C86.6532 8.97622 87.3297 12.3798 87.2975 15.2426C87.2653 16.4196 86.621 18.5508 85.2358 19.5051C84.3017 20.1413 81.4025 21.191 80.6938 19.9186C80.4493 19.4435 80.3067 18.9237 80.275 18.3918C80.2428 16.7059 80.7582 14.352 80.726 12.2526C80.6616 7.99013 75.282 11.0438 74.2512 12.7297V9.80326L70.8688 12.0617C71.0299 12.7297 70.9654 14.8609 70.8366 17.1194C62.8155 25.1035 61.6881 17.7556 61.6881 17.7556C62.2713 18.0772 62.9215 18.2622 63.5886 18.2963C65.2959 18.4554 69.1615 17.2148 69.4514 14.0975C69.7413 10.9802 67.5508 10.1532 65.5536 10.0577C62.0424 9.9305 58.4668 15.3699 59.2399 18.8371C61.3015 27.8073 69.7091 19.9504 70.7077 18.8689C70.5467 21.2228 70.3534 23.2904 70.3534 23.2904C70.6755 22.9723 73.929 21.7635 73.929 21.7635C73.929 21.7635 74.1867 18.0737 74.1867 16.4514C74.1867 13.7794 76.796 11.8072 76.8926 14.2566C76.9571 15.3381 76.8926 16.8013 76.9571 18.2327C76.9336 19.7405 77.2994 21.2293 78.0201 22.5588C78.6966 23.7675 82.2078 22.3679 83.142 22.018C85.4613 21.1592 87.233 19.1234 88.6504 17.2466C90.2611 15.0518 90.1644 12.1571 89.7135 9.6124ZM66.1335 12.8888C66.9388 13.9385 65.3281 15.8788 64.7161 16.1333C62.8155 16.8967 61.6881 16.5468 61.6881 16.5468C60.3029 16.5468 63.4276 9.42155 66.1335 12.8888ZM26.2215 29.3341C24.4497 31.0836 22.066 33.2148 19.4889 33.4693C16.0743 33.8192 13.8194 31.1154 12.241 28.4435C9.95384 24.6264 8.8586 20.6184 6.1527 17.0558C5.57286 16.3242 4.79975 15.2744 3.83336 14.7019C3.73672 14.9882 3.80114 15.5925 3.80114 16.1969C3.80114 17.183 4.05885 21.6363 4.05885 21.6363C3.06024 22.1134 0.257705 23.9266 0.257705 23.9266C0.257705 23.9266 0.483196 6.52691 0.483196 6.55872C0.476729 5.89382 0.311161 5.23985 0 4.65016L4.63868 1.50105C4.63868 1.50105 3.89778 4.52293 3.80114 5.4772C3.70451 6.43148 3.80114 11.7436 3.80114 11.7436C3.80114 11.7436 11.5001 10.2804 12.853 3.63227L16.2998 1.37381C15.4623 11.4255 7.40901 12.348 6.73254 12.4116C7.22652 12.765 7.68017 13.1702 8.08549 13.6204C10.5337 16.3242 11.5645 19.2824 13.1429 22.5269C14.4315 25.1353 15.9133 28.3162 18.3937 30.0657C19.3753 30.8176 20.6005 31.1907 21.8405 31.1154C22.7811 31.0303 23.6925 30.7484 24.5142 30.2884C25.1262 29.9703 25.8993 29.2069 26.608 28.7616C27.1556 28.348 26.3181 29.2705 26.2215 29.3341ZM22.4203 8.43546C22.3559 8.27642 22.4525 8.14918 22.5814 7.99013C22.8187 7.72411 23.0893 7.48895 23.3867 7.29033C23.4511 7.22671 24.8363 6.36786 24.9329 6.65414C25.0708 7.01929 25.3485 7.31631 25.706 7.48118C25.9638 7.60842 26.2215 7.67204 26.4792 7.79928C26.8335 7.95832 25.6416 8.88079 25.5128 8.94441C25.2145 9.17203 24.8901 9.3642 24.5464 9.51698C24.3695 9.6123 24.1652 9.64592 23.9665 9.6124C23.741 9.48517 23.4511 9.42155 23.1934 9.29431C22.8321 9.11864 22.5546 8.81041 22.4203 8.43546ZM27.1234 8.18099C27.059 8.02194 27.1556 7.89471 27.2845 7.73566C27.5218 7.46963 27.7924 7.23448 28.0898 7.03586C28.1542 6.97224 29.5394 6.11339 29.636 6.39967C29.7739 6.76482 30.0516 7.06184 30.4092 7.22671C30.6669 7.35395 30.9246 7.41757 31.1823 7.5448C31.5366 7.70385 30.3447 8.62632 30.2159 8.68994C29.9176 8.91755 29.5932 9.10973 29.2495 9.2625C29.0726 9.35783 28.8683 9.39145 28.6696 9.35793C28.4442 9.23069 28.1542 9.16707 27.8965 9.03984C27.5364 8.86254 27.2595 8.5549 27.1234 8.18099Z" fill="#003E66"/>
</g>
</svg>
