<svg width="372" height="139" viewBox="0 0 372 139" fill="none" xmlns="http://www.w3.org/2000/svg">
<path d="M26.7232 69.7121C24.2174 64.1435 22.9048 62.1017 19.2056 59.7416C16.0103 57.6998 16.8323 62.1149 16.8323 66.1853C16.8323 70.2557 17.8532 88.8974 17.8532 88.8974C13.7828 90.9259 2.26105 98.3773 2.26105 98.3773C2.26105 98.3773 3.20241 25.7067 3.18916 25.8525C3.26871 21.7821 1.16058 17.9769 1.16058 17.9769L20.2265 4.85086C20.2265 4.85086 17.177 17.3935 16.8456 21.4507C16.5008 25.5211 16.8456 47.5437 16.8456 47.5437C16.8456 47.5437 48.547 41.4845 54.1156 13.7474L68.3686 4.30725C64.643 48.021 28.6988 50.2617 28.6988 50.2617L26.7232 69.7121Z" fill="white"/>
<path d="M63.1712 30.7051C72.4523 23.2803 75.2498 20.7877 75.2498 20.7877C75.2498 20.7877 75.926 71.4754 76.2707 77.2429C76.337 78.4627 75.1835 86.8555 80.4207 84.1905C83.205 82.7718 87.7262 80.0007 87.7262 80.0007V83.3817C87.7262 83.3817 72.7174 94.5189 71.4181 94.6383C67.1223 95.0228 63.3038 93.2461 63.3038 84.3496C63.3038 76.5535 63.1712 37.7189 63.1712 37.7189V30.7051Z" fill="white"/>
<path d="M138.865 79.2714C130.989 87.399 129.464 83.3419 128.947 82.3209C128.444 81.3 128.947 63.255 128.695 50.3013C128.444 37.3344 114.469 41.1529 113.196 41.4048C111.923 41.6567 105.904 44.03 96.7554 48.3523C87.6069 52.6746 92.4728 60.4044 92.4728 60.4044C92.4728 60.4044 102.364 55.5915 105.413 54.3187C105.413 54.3187 105.387 53.9342 104.883 52.4094C103.504 48.286 114.469 45.7271 114.973 50.0361C115.291 52.7674 115.225 60.9613 115.225 60.9613C115.225 60.9613 111.168 58.1504 108.622 58.1637C100.229 58.23 91.0276 67.1 88.8002 70.6136C80.4075 83.8192 93.3744 94.7575 97.9486 94.5056C105.055 94.1079 114.973 83.8324 114.973 83.8324C116.497 86.1262 117.174 90.5678 122.093 93.7499C126.415 96.5475 140.641 83.8324 140.641 83.8324C140.641 83.8324 146.74 71.1306 138.865 79.2582M105.824 83.8457C99.5132 83.0634 98.4525 71.6477 99.4734 68.5982C100.348 65.9995 107.322 57.925 115.225 67.5773C117.518 70.3749 109.881 84.3495 105.824 83.8457Z" fill="white"/>
<path d="M187.206 52.582C177.209 31.7924 157.467 51.0572 154.165 53.0858L156.459 41.1398L138.414 52.582C140.96 58.429 137.645 116.873 137.645 116.873C138.414 115.6 150.864 106.969 150.864 106.969V90.4487C150.864 90.4487 157.984 95.182 162.041 95.2748C183.135 95.7786 193.557 65.8008 187.193 52.582M161.537 87.3992C143.413 79.7092 156.194 60.7095 159.509 57.9252C162.147 55.6978 164.321 53.8946 169.174 54.1067C185.694 54.8757 180.099 95.2748 161.55 87.3992" fill="white"/>
<path d="M241.155 52.582C231.158 31.7924 211.416 51.0572 208.115 53.0858L210.395 41.1398L192.35 52.582C194.896 58.429 191.594 116.873 191.594 116.873C192.35 115.6 204.813 106.969 204.813 106.969V90.4487C204.813 90.4487 211.933 95.182 215.99 95.2748C237.085 95.7786 247.506 65.8008 241.155 52.582ZM215.486 87.3992C197.362 79.7092 210.143 60.7095 213.458 57.9252C216.096 55.6978 218.258 53.8946 223.11 54.1067C239.63 54.8757 234.035 95.2748 215.486 87.3992Z" fill="white"/>
<path d="M297.73 72.5095C297.73 72.5095 295.038 67.4314 294.402 68.0944C259.837 104.184 255.01 72.4167 255.01 72.4167C255.01 72.4167 257.543 74.1933 262.886 74.6972C269.94 75.3734 285.757 70.1229 287.03 57.1692C288.303 44.2023 279.234 40.6888 271.014 40.3971C256.522 39.8932 241.792 62.5125 245.093 76.9909C254.374 117.695 294.375 75.2673 292.612 76.739L297.717 72.5227L297.73 72.5095ZM273.307 52.3298C276.609 56.6522 270.006 64.7797 267.46 65.8006C259.651 68.9297 255.01 67.5773 255.01 67.5773C249.376 67.5773 262.236 37.8514 273.307 52.3298Z" fill="white"/>
<path d="M119.852 27.8546C120.7 32.8531 119.878 33.2907 124.705 35.1601L119.852 27.8546Z" fill="white"/>
<path d="M370.467 38.6603C368.239 26.0116 363.917 11.984 352.422 4.85082C344.254 -0.213983 333.78 0.117483 324.698 1.85436C309.278 4.81104 294.362 12.7132 281.475 21.5037C281.289 21.623 281.117 21.7556 280.931 21.8749C278.054 23.9167 275.309 26.3298 273.002 29.0081C271.332 30.9438 271.809 31.5405 273.931 30.0422C294.574 15.4179 334.39 -2.48121 351.6 25.6669C357.884 35.9556 360.616 50.2484 360.443 62.1812C360.377 67.1001 357.646 75.9304 351.905 79.9345C348.073 82.6127 336.061 86.935 333.17 81.6979C332.163 79.8814 331.645 77.6673 331.433 75.3337C331.261 68.2404 333.422 58.482 333.303 49.7976C333.051 32.0045 310.935 44.7195 306.613 51.8262V39.6282L292.89 48.7767C294.415 55.1276 290.849 95.5399 290.849 95.5399C292.121 94.2671 305.592 89.189 305.592 89.189C305.592 89.189 306.613 73.7692 306.613 67.0736C306.613 55.8966 317.286 47.7558 317.79 57.9251C318.016 62.3933 317.764 68.479 318.029 74.5117C317.87 80.5179 319.514 87.3858 322.351 92.5302C325.122 97.542 339.627 91.7347 343.432 90.3027C353.005 86.7096 360.337 78.2109 366.052 70.3883C372.721 61.2663 372.31 49.2407 370.453 38.6603H370.467Z" fill="white"/>
<path d="M12.8679 58.4423C18.5426 59.2378 23.4218 65.655 26.5243 69.805C37.6483 84.6281 42.1695 101.321 51.5699 117.244C58.0931 128.289 67.2549 139.665 81.362 138.167C92.0618 137.04 101.873 128.196 109.126 120.877C109.444 120.546 112.997 116.714 110.518 118.332C107.627 120.214 104.432 123.317 101.953 124.709C98.5452 126.618 94.7931 127.732 90.9215 128.143C85.7639 128.687 80.9113 126.671 76.8011 123.768C66.5521 116.555 60.4399 103.336 55.1895 92.4109C48.7458 79.0065 44.45 66.6892 34.4265 55.353C31.9604 52.5687 28.1551 48.8033 24.2173 48.2464C22.5467 48.0078 19.126 51.8793 18.0786 52.8339C17.6675 53.2051 12.9607 58.4821 12.8679 58.4688V58.4423Z" fill="white"/>
<path d="M98.532 29.9363C99.6324 33.5162 103.676 34.1128 104.777 34.7095L98.532 29.9363Z" fill="white"/>
<path d="M93.4274 33.6752C93.9313 35.1734 94.9654 36.3269 96.5565 37.1888C97.5376 37.7191 98.6911 37.9578 99.6855 38.4616C100.415 38.8328 101.383 38.4086 102.032 38.1301C103.477 37.5202 104.79 36.6849 105.997 35.7966C106.421 35.4784 111.327 31.6864 109.908 30.9705C108.914 30.4666 107.773 30.2015 106.779 29.6976C105.188 28.8888 104.154 27.6558 103.65 26.1841C103.252 24.9908 97.6304 28.6369 97.3387 28.8491C96.1322 29.7241 94.9654 30.7053 94.0771 31.8057C93.5865 32.4156 93.1888 32.946 93.4274 33.662V33.6752Z" fill="white"/>
<path d="M117.956 28.955C119.056 32.5348 123.1 33.1315 124.201 33.7281L117.956 28.955Z" fill="white"/>
<path d="M112.851 32.6941C113.355 34.1923 114.389 35.3458 115.98 36.2076C116.962 36.738 118.115 36.9766 119.109 37.4804C119.839 37.8517 120.807 37.4274 121.456 37.149C122.901 36.5391 124.214 35.7038 125.421 34.8155C125.858 34.4973 130.737 30.7053 129.332 29.9893C128.351 29.4855 127.197 29.2203 126.203 28.7165C124.612 27.9077 123.578 26.6747 123.074 25.2029C122.676 24.0097 117.054 27.6558 116.763 27.8679C115.556 28.743 114.389 29.7241 113.501 30.8246C113.01 31.4345 112.613 31.9649 112.851 32.6808V32.6941Z" fill="white"/>
<path d="M0.76281 131.882C1.74395 132.187 2.57924 132.452 3.54712 132.452C4.59456 132.452 5.03209 131.895 5.03209 131.153C5.03209 129.058 0.57719 129.84 0.57719 126.154C0.57719 124.245 2.18148 123.131 4.28961 123.131C5.32378 123.131 6.02649 123.343 7.06066 123.714L6.49054 125.438C5.64199 125.146 5.11164 124.974 4.28961 124.974C3.3615 124.974 2.91071 125.438 2.91071 126.141C2.91071 127.944 7.36561 127.48 7.36561 131.139C7.36561 133.035 5.82761 134.282 3.56038 134.282C2.35385 134.282 1.54507 134.016 0.365051 133.645L0.76281 131.855V131.882Z" fill="white"/>
<path d="M11.5155 125.04C11.7807 124.02 12.5365 123.144 13.8225 123.144C15.1086 123.144 15.8511 124.059 16.1163 125.04L18.5028 134.096H16.2754L15.5859 131.338H12.0724L11.3962 134.096H9.16876L11.5288 125.04H11.5155ZM12.4436 120.307C12.9873 120.307 13.4513 120.798 13.4513 121.341C13.4513 121.885 12.9873 122.349 12.4436 122.349C11.9 122.349 11.4227 121.885 11.4227 121.341C11.4227 120.798 11.9 120.307 12.4436 120.307ZM15.1352 129.522L14.0877 125.306C14.0612 125.147 13.9684 125.04 13.8225 125.04C13.6634 125.04 13.5971 125.147 13.5574 125.306L12.5099 129.522H15.1352ZM15.2147 120.307C15.7318 120.307 16.2356 120.798 16.2356 121.341C16.2356 121.885 15.745 122.349 15.2147 122.349C14.6844 122.349 14.1938 121.885 14.1938 121.341C14.1938 120.798 14.6711 120.307 15.2147 120.307Z" fill="white"/>
<path d="M20.916 123.343H23.1301V132.253H27.6911V133.698C27.6911 133.95 27.532 134.096 27.2934 134.096H20.916V123.343Z" fill="white"/>
<path d="M29.8125 126.3C29.8125 124.51 30.9527 123.343 33.22 123.343H36.1899V125.186H33.2465C32.3184 125.186 32.0267 125.597 32.0267 126.459V127.666H35.7259V129.495H32.0267V130.98C32.0267 131.855 32.3184 132.24 33.2465 132.24H36.2562V133.685C36.2562 133.937 36.0971 134.083 35.8584 134.083H33.22C30.966 134.083 29.8125 132.916 29.8125 131.139V126.287V126.3Z" fill="white"/>
<path d="M38.9344 123.343H40.9365L44.7417 130.066C44.6489 129.297 44.6091 128.528 44.6091 127.944V123.357H46.7968V134.109H44.7815L40.9895 127.427C41.0691 128.196 41.1221 128.952 41.1221 129.522V134.109H38.9344V123.357V123.343Z" fill="white"/>
<path d="M112.056 131.882C113.037 132.187 113.872 132.452 114.84 132.452C115.888 132.452 116.325 131.895 116.325 131.153C116.325 129.058 111.87 129.84 111.87 126.154C111.87 124.245 113.475 123.131 115.583 123.131C116.617 123.131 117.333 123.343 118.354 123.714L117.784 125.438C116.935 125.146 116.418 124.974 115.583 124.974C114.655 124.974 114.204 125.438 114.204 126.141C114.204 127.944 118.659 127.48 118.659 131.139C118.659 133.035 117.121 134.282 114.853 134.282C113.647 134.282 112.838 134.016 111.658 133.645L112.056 131.855V131.882Z" fill="white"/>
<path d="M121.164 123.343H123.379V127.679L124.055 127.613L126.017 123.343H128.483L126.229 127.838C126.786 128.13 127.171 128.634 127.383 129.27L129.014 134.096H126.693L125.248 129.84C125.169 129.628 124.983 129.363 124.585 129.389L123.379 129.495V133.685C123.379 133.937 123.22 134.083 122.981 134.083H121.164V123.33V123.343Z" fill="white"/>
<path d="M131.281 123.343H133.495V133.698C133.495 133.95 133.336 134.096 133.097 134.096H131.281V123.343Z" fill="white"/>
<path d="M140.774 123.794C141.941 123.436 143.094 123.144 144.261 123.144C146.674 123.144 147.973 124.855 147.973 126.724C147.973 127.705 147.443 129.204 145.958 129.866L147.934 134.109H145.494L143.784 130.198H143.001V134.109H140.787V123.807L140.774 123.794ZM144.089 128.421C145.123 128.421 145.64 127.758 145.64 126.711C145.64 125.756 145.242 124.987 144.235 124.987C143.824 124.987 143.399 125.04 142.988 125.173V128.421H144.089Z" fill="white"/>
<path d="M150.161 126.3C150.161 124.51 151.301 123.343 153.569 123.343H156.539V125.186H153.595C152.667 125.186 152.375 125.597 152.375 126.459V127.666H156.074V129.495H152.375V130.98C152.375 131.855 152.667 132.24 153.595 132.24H156.605V133.685C156.605 133.937 156.446 134.083 156.207 134.083H153.569C151.315 134.083 150.161 132.916 150.161 131.139V126.287V126.3Z" fill="white"/>
<path d="M159.031 131.882C160.012 132.187 160.848 132.452 161.816 132.452C162.863 132.452 163.3 131.895 163.3 131.153C163.3 129.058 158.846 129.84 158.846 126.154C158.846 124.245 160.45 123.131 162.558 123.131C163.592 123.131 164.295 123.343 165.329 123.714L164.759 125.438C163.91 125.146 163.393 124.974 162.558 124.974C161.63 124.974 161.166 125.438 161.166 126.141C161.166 127.944 165.621 127.48 165.621 131.139C165.621 133.035 164.083 134.282 161.816 134.282C160.609 134.282 159.8 134.016 158.62 133.645L159.018 131.855L159.031 131.882Z" fill="white"/>
<path d="M167.769 127.732C167.769 125.08 169.36 123.144 172.104 123.144C174.849 123.144 176.44 125.08 176.44 127.732V129.707C176.44 132.359 174.849 134.295 172.104 134.295C169.36 134.295 167.769 132.359 167.769 129.707V127.732ZM174.146 129.535V127.904C174.146 126.353 173.735 124.987 172.104 124.987C170.473 124.987 170.049 126.34 170.049 127.904V129.535C170.049 131.113 170.487 132.452 172.104 132.452C173.722 132.452 174.146 131.113 174.146 129.535Z" fill="white"/>
<path d="M179.171 123.794C180.338 123.436 181.491 123.144 182.645 123.144C185.071 123.144 186.357 124.855 186.357 126.724C186.357 127.705 185.827 129.204 184.342 129.866L186.317 134.109H183.878L182.168 130.198H181.385V134.109H179.171V123.807V123.794ZM182.486 128.421C183.52 128.421 184.037 127.758 184.037 126.711C184.037 125.756 183.639 124.987 182.632 124.987C182.221 124.987 181.796 125.04 181.385 125.173V128.421H182.486Z" fill="white"/>
<path d="M190.587 125.186H188.094V123.343H195.307V125.186H192.814V134.096H190.6V125.186H190.587Z" fill="white"/>
<path d="M211.217 123.343H215.261C218.032 123.343 219.345 124.616 219.345 127.347V130.092C219.345 132.823 218.032 134.096 215.261 134.096H211.217V123.343ZM215.195 132.253C216.892 132.253 217.064 131.365 217.064 129.946V127.533C217.064 126.128 216.892 125.213 215.195 125.213H213.445V132.266H215.195V132.253Z" fill="white"/>
<path d="M223.574 125.04C223.839 124.019 224.595 123.144 225.881 123.144C227.167 123.144 227.91 124.059 228.175 125.04L230.562 134.096H228.334L227.645 131.338H224.131L223.455 134.096H221.214L223.574 125.04ZM227.194 129.522L226.146 125.306C226.12 125.146 226.027 125.04 225.881 125.04C225.722 125.04 225.656 125.146 225.616 125.306L224.569 129.522H227.181H227.194Z" fill="white"/>
<path d="M232.975 123.343H235.189V132.253H239.75V133.698C239.75 133.95 239.591 134.096 239.352 134.096H232.975V123.343Z" fill="white"/>
<path d="M243.82 125.04C244.085 124.019 244.841 123.144 246.127 123.144C247.413 123.144 248.156 124.059 248.421 125.04L250.807 134.096H248.567L247.877 131.338H244.364L243.688 134.096H241.447L243.807 125.04H243.82ZM247.44 129.522L246.392 125.306C246.366 125.146 246.273 125.04 246.127 125.04C245.968 125.04 245.902 125.146 245.862 125.306L244.815 129.522H247.44Z" fill="white"/>
<path d="M253.221 123.794C254.387 123.436 255.541 123.144 256.708 123.144C259.121 123.144 260.42 124.855 260.42 126.724C260.42 127.705 259.903 129.204 258.405 129.866L260.38 134.109H257.941L256.23 130.198H255.448V134.109H253.234V123.807L253.221 123.794ZM256.535 128.421C257.569 128.421 258.086 127.758 258.086 126.711C258.086 125.756 257.689 124.987 256.681 124.987C256.27 124.987 255.846 125.04 255.435 125.173V128.421H256.522H256.535Z" fill="white"/>
<path d="M262.913 123.343H264.915L268.72 130.066C268.627 129.297 268.587 128.528 268.587 127.944V123.357H270.775V134.109H268.76L264.968 127.427C265.047 128.196 265.1 128.952 265.1 129.522V134.109H262.913V123.357V123.343Z" fill="white"/>
<path d="M275.535 125.04C275.8 124.019 276.556 123.144 277.842 123.144C279.128 123.144 279.87 124.059 280.136 125.04L282.522 134.096H280.295L279.605 131.338H276.092L275.416 134.096H273.188L275.548 125.04H275.535ZM279.154 129.522L278.107 125.306C278.067 125.146 277.988 125.04 277.842 125.04C277.683 125.04 277.616 125.146 277.577 125.306L276.529 129.522H279.141H279.154Z" fill="white"/>
<path d="M288.847 131.882C289.828 132.187 290.663 132.452 291.631 132.452C292.678 132.452 293.116 131.895 293.116 131.153C293.116 129.058 288.661 129.84 288.661 126.154C288.661 124.245 290.265 123.131 292.373 123.131C293.408 123.131 294.11 123.343 295.144 123.714L294.574 125.438C293.726 125.146 293.209 124.974 292.373 124.974C291.445 124.974 290.981 125.438 290.981 126.141C290.981 127.944 295.436 127.48 295.436 131.139C295.436 133.035 293.898 134.282 291.631 134.282C290.424 134.282 289.616 134.016 288.436 133.645L288.833 131.855L288.847 131.882Z" fill="white"/>
<path d="M297.319 123.343H299.586L300.368 127.971C300.501 128.806 300.647 129.973 300.766 131.073C300.885 129.986 301.031 128.806 301.217 127.971L301.668 125.876C301.88 124.868 302.503 124.006 303.789 124.006C305.075 124.006 305.698 124.868 305.91 125.876L306.361 127.971C306.534 128.819 306.679 130.026 306.812 131.139C306.931 130.012 307.09 128.806 307.223 127.971L308.005 123.343H310.272L308.111 134.096H305.632L303.855 126.114C303.855 126.114 303.802 126.022 303.776 126.022C303.749 126.022 303.709 126.048 303.696 126.114L301.933 134.096H299.467L297.306 123.343H297.319Z" fill="white"/>
<path d="M312.301 126.3C312.301 124.51 313.441 123.343 315.708 123.343H318.678V125.186H315.735C314.807 125.186 314.515 125.597 314.515 126.459V127.666H318.214V129.495H314.515V130.98C314.515 131.855 314.807 132.24 315.735 132.24H318.745V133.685C318.745 133.937 318.586 134.083 318.347 134.083H315.708C313.455 134.083 312.301 132.916 312.301 131.139V126.287V126.3Z" fill="white"/>
<path d="M321.423 123.343H325.454C328.225 123.343 329.537 124.616 329.537 127.347V130.092C329.537 132.823 328.225 134.096 325.454 134.096H321.423V123.343ZM325.387 132.253C327.084 132.253 327.257 131.365 327.257 129.946V127.533C327.257 126.128 327.084 125.213 325.387 125.213H323.624V132.266H325.387V132.253Z" fill="white"/>
<path d="M331.977 126.3C331.977 124.51 333.117 123.343 335.384 123.343H338.354V125.186H335.411C334.483 125.186 334.191 125.597 334.191 126.459V127.666H337.89V129.495H334.191V130.98C334.191 131.855 334.483 132.24 335.411 132.24H338.421V133.685C338.421 133.937 338.261 134.083 338.023 134.083H335.384C333.13 134.083 331.977 132.916 331.977 131.139V126.287V126.3Z" fill="white"/>
<path d="M341.099 123.343H343.101L346.906 130.066C346.813 129.297 346.774 128.528 346.774 127.944V123.357H348.961V134.109H346.946L343.154 127.427C343.233 128.196 343.287 128.952 343.287 129.522V134.109H341.099V123.357V123.343Z" fill="white"/>
<path d="M205.264 128.713C205.264 129.986 204.243 131.007 202.97 131.007C201.697 131.007 200.677 129.986 200.677 128.713C200.677 127.44 201.697 126.419 202.97 126.419C204.243 126.419 205.264 127.44 205.264 128.713Z" fill="white"/>
</svg>
