<svg xmlns="http://www.w3.org/2000/svg" width="68" height="63" viewBox="0 0 68 63" fill="none">
<g id="Clip path group">
<mask id="mask0_851_15579" style="mask-type:luminance" maskUnits="userSpaceOnUse" x="0" y="-8" width="68" height="120">
<g id="clippath-141">
<path id="Vector" d="M67.7119 -7.6499H0.465828V111.816H67.7119V-7.6499Z" fill="white"/>
</g>
</mask>
<g mask="url(#mask0_851_15579)">
<g id="Group">
<g id="Group_2">
<g id="Group_3">
<path id="Vector_2" d="M34.2789 26.9283L22.2818 21.2583L34.1579 13.9863L46.2069 21.3123L34.2789 26.9463V26.9283ZM26.3961 21.3663L34.2962 24.9303L42.2654 21.1683L34.348 16.6323L26.3961 21.3663Z" fill="white"/>
<path id="Vector_3" d="M48.3332 41.8863L34.227 35.5143L20.0172 42.2463L3.12787 32.1663L19.9135 22.6263L34.2789 29.3583L48.4887 22.6263L65.4299 32.1663L48.3332 41.8863ZM13.016 35.2983L18.859 32.6883L13.016 29.3763L7.29402 32.1483L13.016 35.2803V35.2983ZM52.6203 37.2603L42.3519 32.3643L52.7067 27.1623L48.3677 24.6783L34.3653 31.2663L20.2592 25.0383L15.8856 27.6303L26.154 32.6523L15.8338 37.7283L20.1555 40.2123L34.3653 33.1923L48.264 39.8523L52.6376 37.2603H52.6203ZM61.2119 32.0943L55.9048 28.9983L49.6124 32.2563L55.853 35.3163L61.2119 32.0943Z" fill="white"/>
<path id="Vector_4" d="M34.1924 37.9443L46.0339 43.2723L34.6073 50.0583L34.106 50.3643L22.299 43.5783L34.2097 37.9443H34.1924ZM42.0925 43.5063L34.1751 39.9423L26.2059 43.7043L34.106 48.2403L42.0752 43.5063H42.0925Z" fill="white"/>
</g>
<path id="Vector_5" d="M66.7265 33.8583L49.6297 44.1003L48.4715 60.8763L35.3162 69.8763V89.9463L51.6004 79.7583L52.8624 63.2163L66.7265 53.6583V33.8583ZM42.4038 83.1063L37.2869 85.9323L37.3215 79.9923L42.957 76.2483L42.3865 83.0883L42.4038 83.1063ZM64.0125 53.0823L51.272 62.5143L49.7507 78.7683L45.7056 81.1623L46.6218 70.0203C46.6218 70.0203 38.1685 75.6363 37.1659 76.2843L37.2004 70.7943L49.7507 61.7403L51.4449 45.1263L55.49 42.7143L54.5911 53.8563C54.5911 53.8563 61.333 49.3923 64.047 47.5923L63.9952 53.0823H64.0125ZM64.0816 43.7223L58.2386 47.5923L58.7918 40.7343L64.1162 37.5303L64.0643 43.7223H64.0816Z" fill="white"/>
<path id="Vector_6" d="M46.2069 58.9323L47.296 45.4143L35.4199 52.8843L35.3162 67.7163L46.1724 59.3283L46.2069 58.9323ZM37.2523 63.9183L37.3215 53.8203L45.1006 48.9243L44.3399 58.4463L37.2523 63.9183Z" fill="white"/>
<g id="Group_4">
<path id="Vector_7" d="M19.5504 61.2184L32.7404 69.8944V89.9644L16.1622 80.2084L15.2979 63.4684L2.24624 54.7744L1.84864 34.1824L18.7034 44.4964L19.5677 61.2184H19.5504ZM4.51082 44.6404L10.0254 48.1864L9.57589 41.3464L4.2861 38.2684L4.51082 44.6404ZM30.6314 80.2264L24.8575 76.5004L25.3243 83.3404L30.5968 86.4184L30.6314 80.2264ZM30.7005 70.8484L18.1156 61.9024L16.8537 45.5404L12.8258 43.2184L13.5692 54.3424C13.5692 54.3424 5.18501 48.9424 4.19966 48.3124L4.1478 53.8024L16.8537 62.8384L18.0292 79.1284L22.0398 81.4324L21.3137 70.2904C21.3137 70.2904 29.6806 75.6904 30.6659 76.3204L30.7005 70.8304V70.8484Z" fill="white"/>
<path id="Vector_8" d="M32.7403 52.9203L32.6365 67.7523L21.9014 59.6343L21.0024 45.7563L32.3254 52.6683L32.7575 52.9383L32.7403 52.9203ZM30.8387 53.9103L23.1287 49.2123L23.7511 58.6983L30.7696 64.0084L30.8387 53.9103Z" fill="white"/>
<path id="Vector_9" d="M12.9642 65.0523L13.7939 77.8863L2.12525 71.2083L2.24626 56.9343L12.9814 65.0523H12.9642ZM11.6676 74.5743L11.1144 65.9703L4.11325 60.6783L4.0441 70.0743L11.6676 74.5743Z" fill="white"/>
</g>
<path id="Vector_10" d="M55.0231 64.5303L53.9168 78.4263L66.7091 71.0463V56.7363L55.0231 64.5303ZM65.1532 70.0023L56.1122 74.9163L56.821 66.0603L65.1532 60.6603V70.0023Z" fill="white"/>
</g>
<g id="Group_5">
<path id="Vector_11" d="M53.1735 1.47618L66.3634 10.1522V30.2222L49.7853 20.4662L48.9209 3.72618L35.8693 -4.96782L35.4717 -25.5598L52.3264 -15.2458L53.1908 1.49418L53.1735 1.47618ZM38.1339 -15.0838L43.6484 -11.5378L43.1989 -18.3778L37.9091 -21.4558L38.1339 -15.0838ZM64.2544 20.4842L58.4806 16.7582L58.9473 23.5982L64.2198 26.6762L64.2544 20.4842ZM64.3236 11.1242L51.7387 2.17818L50.4767 -14.1838L46.4489 -16.5058L47.1922 -5.38181C47.1922 -5.38181 38.8081 -10.7818 37.8227 -11.4118L37.7709 -5.92182L50.4767 3.11419L51.6522 19.4042L55.6628 21.7082L54.9368 10.5662C54.9368 10.5662 63.3036 15.9662 64.289 16.5962L64.3236 11.1062V11.1242Z" fill="white"/>
<path id="Vector_12" d="M66.3635 -6.82184L66.2598 8.01016L55.5246 -0.107841L54.6084 -13.9858L65.9313 -7.07384L66.3635 -6.80384V-6.82184ZM64.462 -5.83184L56.752 -10.5298L57.3743 -1.04384L64.3928 4.26616L64.462 -5.83184Z" fill="white"/>
<path id="Vector_13" d="M46.5872 5.31014L47.417 18.1441L35.7483 11.4661L35.8693 -2.80786L46.6045 5.31014H46.5872ZM45.2907 14.8501L44.7375 6.24614L37.7363 0.954139L37.6671 10.3501L45.2907 14.8501Z" fill="white"/>
</g>
<g id="Group_6">
<path id="Vector_14" d="M33.1034 -25.8838L16.0067 -15.6418L14.8485 1.13421L1.69312 10.1342V30.2042L17.9774 20.0162L19.2393 3.47421L33.1034 -6.08379V-25.8838ZM8.78076 23.3822L3.66383 26.2082L3.69841 20.2682L9.33394 16.5242L8.76347 23.3642L8.78076 23.3822ZM30.3894 -6.65979L17.6489 2.77221L16.1277 19.0262L12.0826 21.4202L12.9988 10.2782C12.9988 10.2782 4.54547 15.8942 3.54283 16.5422L3.5774 11.0522L16.1277 1.99821L17.8218 -14.6158L21.867 -17.0278L20.968 -5.88579C20.968 -5.88579 27.7099 -10.3498 30.424 -12.1498L30.3721 -6.65979H30.3894ZM30.4586 -16.0198L24.6156 -12.1498L25.1688 -19.0078L30.5104 -22.2118L30.4586 -16.0198Z" fill="white"/>
<path id="Vector_15" d="M12.5839 -0.791815L13.673 -14.3098L1.79685 -6.83982L1.69312 7.99218L12.5493 -0.395815L12.5839 -0.791815ZM3.62926 4.19419L3.69841 -5.90381L11.4775 -10.7998L10.7169 -1.27781L3.62926 4.19419Z" fill="white"/>
<path id="Vector_16" d="M21.4003 4.80621L20.294 18.7022L33.0863 11.3222V-2.98779L21.4003 4.80621ZM31.5304 10.2782L22.4894 15.1922L23.1982 6.33621L31.5304 0.936207V10.2782Z" fill="white"/>
</g>
</g>
</g>
</g>
</svg>
